{
	"asset":{
		"generator":"Khronos glTF Blender I/O v4.3.47",
		"version":"2.0"
	},
	"extensionsUsed":[
		"KHR_materials_unlit"
	],
	"scene":0,
	"scenes":[
		{
			"name":"Scene",
			"nodes":[
				8
			]
		}
	],
	"nodes":[
		{
			"mesh":0,
			"name":"RoadFullRight_Material.001_0",
			"scale":[
				0.7500002384185791,
				1,
				1
			],
			"translation":[
				0.07499980926513672,
				0,
				0
			]
		},
		{
			"children":[
				0
			],
			"name":"RoadFullRight",
			"rotation":[
				-0.70710688829422,
				0,
				0,
				0.7071066498756409
			],
			"scale":[
				300,
				299.9999694824219,
				4.999999523162842
			],
			"translation":[
				2348.496337890625,
				0,
				761.7911987304688
			]
		},
		{
			"mesh":1,
			"name":"Object",
			"scale":[
				0.7500002384185791,
				1,
				1
			],
			"translation":[
				0.07499980926513672,
				0,
				0
			]
		},
		{
			"mesh":2,
			"name":"Object.001",
			"scale":[
				0.7500002384185791,
				1,
				1
			],
			"translation":[
				0.07499980926513672,
				1.9977511167526245,
				3.6312670999905095e-05
			]
		},
		{
			"mesh":3,
			"name":"Object.002",
			"scale":[
				0.7500002384185791,
				1,
				1
			],
			"translation":[
				0.07499980926513672,
				3.991936683654785,
				7.256053504534066e-05
			]
		},
		{
			"children":[
				2,
				3,
				4
			],
			"name":"RoadFullRight.001",
			"rotation":[
				-0.70710688829422,
				0,
				0,
				0.7071066498756409
			],
			"scale":[
				300,
				299.9999694824219,
				4.999999523162842
			],
			"translation":[
				2348.496337890625,
				0,
				164.28196716308594
			]
		},
		{
			"children":[
				1,
				5
			],
			"name":"RootNode"
		},
		{
			"children":[
				6
			],
			"name":"e1a7df1a0ba24b20869670034a402ec1.fbx",
			"rotation":[
				0.70710688829422,
				0,
				0,
				0.7071066498756409
			],
			"scale":[
				0.009999999776482582,
				0.010000000707805157,
				0.010000000707805157
			]
		},
		{
			"children":[
				7
			],
			"name":"OnePlusHalfRoad",
			"rotation":[
				-0.70710688829422,
				0,
				0,
				0.7071066498756409
			]
		}
	],
	"materials":[
		{
			"doubleSided":true,
			"extensions":{
				"KHR_materials_unlit":{}
			},
			"name":"Material.001",
			"pbrMetallicRoughness":{
				"baseColorFactor":[
					0.13361500203609467,
					0.13361500203609467,
					0.13361500203609467,
					1
				],
				"metallicFactor":0,
				"roughnessFactor":0.9
			}
		},
		{
			"doubleSided":true,
			"extensions":{
				"KHR_materials_unlit":{}
			},
			"name":"Material.002",
			"pbrMetallicRoughness":{
				"baseColorFactor":[
					0.800000011920929,
					0.800000011920929,
					0.800000011920929,
					1
				],
				"metallicFactor":0,
				"roughnessFactor":0.9
			}
		}
	],
	"meshes":[
		{
			"name":"RoadFullRight_Material.001_0",
			"primitives":[
				{
					"attributes":{
						"POSITION":0,
						"NORMAL":1,
						"TEXCOORD_0":2
					},
					"indices":3,
					"material":0
				},
				{
					"attributes":{
						"POSITION":4,
						"NORMAL":5,
						"TEXCOORD_0":6
					},
					"indices":7,
					"material":1
				}
			]
		},
		{
			"name":"RoadFullRight_Material.001_0.002",
			"primitives":[
				{
					"attributes":{
						"POSITION":8,
						"NORMAL":9,
						"TEXCOORD_0":10
					},
					"indices":3,
					"material":0
				},
				{
					"attributes":{
						"POSITION":11,
						"NORMAL":12,
						"TEXCOORD_0":13
					},
					"indices":7,
					"material":1
				}
			]
		},
		{
			"name":"RoadFullRight_Material.001_0.003",
			"primitives":[
				{
					"attributes":{
						"POSITION":14,
						"NORMAL":15,
						"TEXCOORD_0":16
					},
					"indices":3,
					"material":0
				},
				{
					"attributes":{
						"POSITION":17,
						"NORMAL":18,
						"TEXCOORD_0":19
					},
					"indices":7,
					"material":1
				}
			]
		},
		{
			"name":"RoadFullRight_Material.001_0.004",
			"primitives":[
				{
					"attributes":{
						"POSITION":20,
						"NORMAL":21,
						"TEXCOORD_0":22
					},
					"indices":3,
					"material":0
				},
				{
					"attributes":{
						"POSITION":23,
						"NORMAL":24,
						"TEXCOORD_0":25
					},
					"indices":7,
					"material":1
				}
			]
		}
	],
	"accessors":[
		{
			"bufferView":0,
			"componentType":5126,
			"count":170,
			"max":[
				0.2624460458755493,
				1.0000123977661133,
				0.07847988605499268
			],
			"min":[
				-1.7375538349151611,
				-0.9999876022338867,
				-1.9215199947357178
			],
			"type":"VEC3"
		},
		{
			"bufferView":1,
			"componentType":5126,
			"count":170,
			"type":"VEC3"
		},
		{
			"bufferView":2,
			"componentType":5126,
			"count":170,
			"type":"VEC2"
		},
		{
			"bufferView":3,
			"componentType":5123,
			"count":570,
			"type":"SCALAR"
		},
		{
			"bufferView":4,
			"componentType":5126,
			"count":12,
			"max":[
				-1.0215270519256592,
				0.7500123977661133,
				0.09847988188266754
			],
			"min":[
				-1.1452834606170654,
				-0.7499876022338867,
				0.09847988188266754
			],
			"type":"VEC3"
		},
		{
			"bufferView":5,
			"componentType":5126,
			"count":12,
			"type":"VEC3"
		},
		{
			"bufferView":6,
			"componentType":5126,
			"count":12,
			"type":"VEC2"
		},
		{
			"bufferView":7,
			"componentType":5123,
			"count":24,
			"type":"SCALAR"
		},
		{
			"bufferView":8,
			"componentType":5126,
			"count":170,
			"max":[
				0.2624460458755493,
				1.0000123977661133,
				0.07847988605499268
			],
			"min":[
				-1.7375538349151611,
				-0.9999876022338867,
				-1.9215199947357178
			],
			"type":"VEC3"
		},
		{
			"bufferView":9,
			"componentType":5126,
			"count":170,
			"type":"VEC3"
		},
		{
			"bufferView":10,
			"componentType":5126,
			"count":170,
			"type":"VEC2"
		},
		{
			"bufferView":11,
			"componentType":5126,
			"count":12,
			"max":[
				-1.0215270519256592,
				0.7500123977661133,
				0.09847988188266754
			],
			"min":[
				-1.1452834606170654,
				-0.7499876022338867,
				0.09847988188266754
			],
			"type":"VEC3"
		},
		{
			"bufferView":12,
			"componentType":5126,
			"count":12,
			"type":"VEC3"
		},
		{
			"bufferView":13,
			"componentType":5126,
			"count":12,
			"type":"VEC2"
		},
		{
			"bufferView":14,
			"componentType":5126,
			"count":170,
			"max":[
				0.2624460458755493,
				1.0000123977661133,
				0.07847988605499268
			],
			"min":[
				-1.7375538349151611,
				-0.9999876022338867,
				-1.9215199947357178
			],
			"type":"VEC3"
		},
		{
			"bufferView":15,
			"componentType":5126,
			"count":170,
			"type":"VEC3"
		},
		{
			"bufferView":16,
			"componentType":5126,
			"count":170,
			"type":"VEC2"
		},
		{
			"bufferView":17,
			"componentType":5126,
			"count":12,
			"max":[
				-1.0215270519256592,
				0.7500123977661133,
				0.09847988188266754
			],
			"min":[
				-1.1452834606170654,
				-0.7499876022338867,
				0.09847988188266754
			],
			"type":"VEC3"
		},
		{
			"bufferView":18,
			"componentType":5126,
			"count":12,
			"type":"VEC3"
		},
		{
			"bufferView":19,
			"componentType":5126,
			"count":12,
			"type":"VEC2"
		},
		{
			"bufferView":20,
			"componentType":5126,
			"count":170,
			"max":[
				0.2624460458755493,
				1.0000123977661133,
				0.07847988605499268
			],
			"min":[
				-1.7375538349151611,
				-0.9999876022338867,
				-1.9215199947357178
			],
			"type":"VEC3"
		},
		{
			"bufferView":21,
			"componentType":5126,
			"count":170,
			"type":"VEC3"
		},
		{
			"bufferView":22,
			"componentType":5126,
			"count":170,
			"type":"VEC2"
		},
		{
			"bufferView":23,
			"componentType":5126,
			"count":12,
			"max":[
				-1.0215270519256592,
				0.7500123977661133,
				0.09847988188266754
			],
			"min":[
				-1.1452834606170654,
				-0.7499876022338867,
				0.09847988188266754
			],
			"type":"VEC3"
		},
		{
			"bufferView":24,
			"componentType":5126,
			"count":12,
			"type":"VEC3"
		},
		{
			"bufferView":25,
			"componentType":5126,
			"count":12,
			"type":"VEC2"
		}
	],
	"bufferViews":[
		{
			"buffer":0,
			"byteLength":2040,
			"byteOffset":0,
			"target":34962
		},
		{
			"buffer":0,
			"byteLength":2040,
			"byteOffset":2040,
			"target":34962
		},
		{
			"buffer":0,
			"byteLength":1360,
			"byteOffset":4080,
			"target":34962
		},
		{
			"buffer":0,
			"byteLength":1140,
			"byteOffset":5440,
			"target":34963
		},
		{
			"buffer":0,
			"byteLength":144,
			"byteOffset":6580,
			"target":34962
		},
		{
			"buffer":0,
			"byteLength":144,
			"byteOffset":6724,
			"target":34962
		},
		{
			"buffer":0,
			"byteLength":96,
			"byteOffset":6868,
			"target":34962
		},
		{
			"buffer":0,
			"byteLength":48,
			"byteOffset":6964,
			"target":34963
		},
		{
			"buffer":0,
			"byteLength":2040,
			"byteOffset":7012,
			"target":34962
		},
		{
			"buffer":0,
			"byteLength":2040,
			"byteOffset":9052,
			"target":34962
		},
		{
			"buffer":0,
			"byteLength":1360,
			"byteOffset":11092,
			"target":34962
		},
		{
			"buffer":0,
			"byteLength":144,
			"byteOffset":12452,
			"target":34962
		},
		{
			"buffer":0,
			"byteLength":144,
			"byteOffset":12596,
			"target":34962
		},
		{
			"buffer":0,
			"byteLength":96,
			"byteOffset":12740,
			"target":34962
		},
		{
			"buffer":0,
			"byteLength":2040,
			"byteOffset":12836,
			"target":34962
		},
		{
			"buffer":0,
			"byteLength":2040,
			"byteOffset":14876,
			"target":34962
		},
		{
			"buffer":0,
			"byteLength":1360,
			"byteOffset":16916,
			"target":34962
		},
		{
			"buffer":0,
			"byteLength":144,
			"byteOffset":18276,
			"target":34962
		},
		{
			"buffer":0,
			"byteLength":144,
			"byteOffset":18420,
			"target":34962
		},
		{
			"buffer":0,
			"byteLength":96,
			"byteOffset":18564,
			"target":34962
		},
		{
			"buffer":0,
			"byteLength":2040,
			"byteOffset":18660,
			"target":34962
		},
		{
			"buffer":0,
			"byteLength":2040,
			"byteOffset":20700,
			"target":34962
		},
		{
			"buffer":0,
			"byteLength":1360,
			"byteOffset":22740,
			"target":34962
		},
		{
			"buffer":0,
			"byteLength":144,
			"byteOffset":24100,
			"target":34962
		},
		{
			"buffer":0,
			"byteLength":144,
			"byteOffset":24244,
			"target":34962
		},
		{
			"buffer":0,
			"byteLength":96,
			"byteOffset":24388,
			"target":34962
		}
	],
	"buffers":[
		{
			"byteLength":24484,
			"uri":"roadplusonehalf.bin"
		}
	]
}
